<?xml version="1.0" encoding="iso-8859-1"?>
<!-- Generator: Adobe Illustrator 19.0.0, SVG Export Plug-In . SVG Version: 6.00 Build 0)  -->
<svg version="1.1" id="Layer_1" xmlns="http://www.w3.org/2000/svg" xmlns:xlink="http://www.w3.org/1999/xlink" x="0px" y="0px"
	 viewBox="0 0 3000 500" style="enable-background:new 0 0 0 0;" xml:space="preserve">
<g>
	<g>
		<path d="M452.073,232.689H223.961c-2.197,0-4.027,1.831-4.027,4.027c0,2.196,1.831,4.027,4.027,4.027h227.99
			c2.197,0,4.027-1.831,4.027-4.027C455.978,234.52,454.27,232.689,452.073,232.689z"/>
	</g>
</g>
<g>
	<g>
		<path d="M452.073,296.643h-99.958c-2.197,0-4.027,1.831-4.027,4.027c0,2.196,1.831,4.027,4.027,4.027h99.959
			c2.197,0,4.027-1.831,4.027-4.027C456.101,298.474,454.27,296.643,452.073,296.643z"/>
	</g>
</g>
<g>
	<g>
		<path d="M307.932,296.522h-83.97c-2.197,0-4.027,1.831-4.027,4.027s1.831,4.027,4.027,4.027h83.97
			c2.197,0,4.027-1.831,4.027-4.027S310.128,296.522,307.932,296.522z"/>
	</g>
</g>
<g>
	<g>
		<path d="M452.073,360.597H223.961c-2.197,0-4.027,1.831-4.027,4.027s1.831,4.027,4.027,4.027h227.99
			c2.197,0,4.027-1.831,4.027-4.027S454.27,360.597,452.073,360.597z"/>
	</g>
</g>
<g>
	<g>
		<path d="M471.479,168.612H201.871c-23.067,0-41.863,18.918-41.863,41.986v179.658c0,23.312,18.795,42.23,41.863,42.23h165.5
			l65.785,65.663c0.732,0.732,1.831,1.22,2.807,1.22c0.488,0,1.098-0.122,1.587-0.366c1.464-0.61,2.441-2.075,2.441-3.661v-62.856
			h31.489c22.701,0,40.521-18.551,40.521-42.23V210.719C512,187.042,494.303,168.612,471.479,168.612z M504.067,390.378
			c0,19.528-13.914,34.296-32.465,34.296h-35.516c-2.197,0-4.027,1.831-4.027,4.027v57.242l-60.171-60.049
			c-0.732-0.732-1.709-1.22-2.807-1.22H201.871c-18.673,0-33.93-15.378-33.93-34.296V210.719c0-19.04,14.89-34.052,33.93-34.052
			h269.608c18.551,0,32.465,14.646,32.465,34.052v179.658L504.067,390.378L504.067,390.378z"/>
	</g>
</g>
<g>
	<g>
		<path d="M288.039,76.586H60.049c-2.197,0-4.027,1.831-4.027,4.027c0,2.197,1.831,4.027,4.027,4.027h227.99
			c2.197,0,4.027-1.831,4.027-4.027C292.066,78.418,290.235,76.586,288.039,76.586z"/>
	</g>
</g>
<g>
	<g>
		<path d="M160.008,140.541H60.049c-2.197,0-4.027,1.831-4.027,4.027c0,2.197,1.831,4.027,4.027,4.027h99.959
			c2.196,0,4.027-1.709,4.027-4.027C164.036,142.372,162.204,140.541,160.008,140.541z"/>
	</g>
</g>
<g>
	<g>
		<path d="M288.039,140.663h-83.97c-2.197,0-4.027,1.831-4.027,4.027c0,2.196,1.831,4.027,4.027,4.027h83.97
			c2.197,0,4.027-1.831,4.027-4.027C292.066,142.372,290.235,140.663,288.039,140.663z"/>
	</g>
</g>
<g>
	<g>
		<path d="M128.03,204.617H60.049c-2.197,0-4.027,1.831-4.027,4.027c0,2.196,1.831,4.027,4.027,4.027h67.981
			c2.197,0,4.027-1.831,4.027-4.027C132.058,206.448,130.227,204.617,128.03,204.617z"/>
	</g>
</g>
<g>
	<g>
		<path d="M310.129,12.632H40.521C17.819,12.632,0,31.184,0,54.74v179.658c0,23.678,17.819,42.23,40.521,42.23h27.461v68.104
			c0,1.587,0.976,3.051,2.441,3.661c0.488,0.244,0.976,0.366,1.587,0.366c0.976,0,2.075-0.366,2.807-1.098l57.73-56.265
			c1.587-1.587,1.587-4.027,0.122-5.614c-1.709-1.71-4.15-1.71-5.736-0.246L76.037,335.21v-62.611c0-2.197-1.831-4.027-4.027-4.027
			H40.521c-18.551,0-32.465-14.768-32.465-34.174V54.74c0-19.406,14.036-34.174,32.465-34.174h269.608
			c18.673,0,33.808,15.256,33.808,34.174v89.829c0,2.197,1.831,4.027,4.027,4.027s4.027-1.831,4.027-4.027V54.74
			C351.992,31.551,333.197,12.632,310.129,12.632z"/>
	</g>
</g>
<g>
</g>
<g>
</g>
<g>
</g>
<g>
</g>
<g>
</g>
<g>
</g>
<g>
</g>
<g>
</g>
<g>
</g>
<g>
</g>
<g>
</g>
<g>
</g>
<g>
</g>
<g>
</g>
<g>
</g>
</svg>
