<?xml version="1.0" standalone="no"?>
<!DOCTYPE svg PUBLIC "-//W3C//DTD SVG 20010904//EN"
 "http://www.w3.org/TR/2001/REC-SVG-20010904/DTD/svg10.dtd">
<svg version="1.0" xmlns="http://www.w3.org/2000/svg"
 width="199.000000pt" height="98.000000pt" viewBox="0 0 199.000000 98.000000"
 preserveAspectRatio="xMidYMid meet">

<g transform="translate(0.000000,98.000000) scale(0.100000,-0.100000)"
fill="#000000" stroke="none">
<path d="M333 936 c-185 -60 -281 -268 -204 -442 22 -50 93 -129 133 -150 l28
-15 -20 -39 c-11 -22 -20 -42 -20 -45 0 -3 27 -5 60 -5 33 0 60 -4 60 -9 0 -5
-21 -49 -47 -97 l-47 -89 145 139 c79 76 167 155 194 176 97 72 141 165 133
284 -8 126 -73 222 -186 273 -67 31 -167 39 -229 19z m211 -71 c153 -74 197
-272 90 -412 -27 -36 -92 -77 -138 -89 l-30 -7 25 32 c94 125 107 154 69 144
-12 -3 -29 2 -39 11 -13 12 -27 15 -45 10 -19 -4 -27 -2 -32 10 -4 9 -26 28
-51 42 -49 29 -53 45 -5 20 37 -19 64 -11 60 18 -3 20 -86 75 -115 76 -17 0
-53 -73 -53 -108 0 -18 15 -50 39 -83 l38 -53 -20 -48 c-19 -47 -20 -47 -46
-33 -34 18 -84 71 -107 115 -26 48 -26 181 -1 227 30 56 80 105 132 130 41 20
62 23 120 21 42 -2 86 -11 109 -23z"/>
<path d="M396 770 c-32 -39 -32 -44 -2 -58 20 -9 26 -7 45 19 43 58 3 94 -43
39z"/>
<path d="M457 736 c-32 -41 -32 -41 -8 -65 19 -19 20 -19 46 19 47 68 11 111
-38 46z"/>
<path d="M496 663 c-38 -49 -44 -85 -14 -91 21 -4 103 102 94 123 -10 28 -43
15 -80 -32z"/>
<path d="M546 617 c-30 -39 -33 -65 -9 -74 21 -8 75 54 71 82 -5 33 -34 29
-62 -8z"/>
<path d="M1443 854 c-3 -8 0 -21 6 -27 10 -9 16 -8 26 7 8 10 12 23 9 27 -9
15 -34 10 -41 -7z"/>
<path d="M990 793 c-6 -38 -14 -79 -17 -91 -5 -20 -2 -23 18 -20 16 2 25 11
27 26 3 17 10 22 30 22 41 0 69 25 77 67 9 47 -10 63 -76 63 l-47 0 -12 -67z
m88 5 c-3 -23 -48 -41 -48 -20 0 24 14 42 32 42 14 0 19 -6 16 -22z"/>
<path d="M1808 828 c-19 -14 -41 -108 -32 -133 15 -38 104 -24 112 18 4 20
-34 25 -40 5 -7 -21 -37 -1 -31 21 4 16 13 21 38 21 21 0 35 6 39 16 9 24 9
24 -28 24 -27 0 -35 4 -38 21 -3 17 -5 18 -20 7z"/>
<path d="M1143 738 c-9 -57 -9 -59 11 -56 15 2 22 12 24 33 2 17 8 36 14 42
11 14 32 7 23 -8 -4 -5 3 -9 13 -9 22 0 34 22 26 44 -3 9 -22 14 -53 14 l-49
0 -9 -60z"/>
<path d="M1290 780 c-25 -25 -28 -95 -4 -104 26 -10 59 -7 78 7 25 19 38 84
19 102 -21 21 -70 18 -93 -5z m58 -37 c-4 -32 -38 -46 -38 -16 0 20 18 43 33
43 4 0 7 -12 5 -27z"/>
<path d="M1421 737 c-6 -35 -11 -71 -11 -79 0 -9 -7 -18 -15 -22 -21 -8 -19
-36 4 -36 29 0 42 24 57 102 18 94 18 98 -5 98 -15 0 -21 -12 -30 -63z"/>
<path d="M1512 783 c-15 -12 -23 -31 -25 -57 -2 -36 1 -41 26 -50 31 -11 76 6
85 33 4 11 -3 12 -32 7 -23 -4 -36 -3 -36 4 0 5 16 10 35 10 24 0 38 5 42 16
17 44 -54 71 -95 37z m53 -23 c3 -5 -3 -10 -15 -10 -12 0 -18 5 -15 10 3 6 10
10 15 10 5 0 12 -4 15 -10z"/>
<path d="M1650 780 c-13 -13 -20 -33 -20 -60 0 -35 3 -40 27 -46 29 -8 73 12
81 35 4 11 -3 12 -32 7 -31 -6 -36 -4 -36 12 0 11 7 25 15 32 12 10 16 9 21
-4 10 -26 44 -20 44 8 0 40 -66 50 -100 16z"/>
<path d="M957 543 c-16 -15 -6 -34 15 -31 29 4 38 38 10 38 -10 0 -22 -3 -25
-7z"/>
<path d="M1266 534 c-3 -9 -6 -24 -6 -35 0 -14 -7 -19 -27 -19 -39 0 -52 -11
-63 -50 -17 -58 9 -92 51 -69 15 7 24 7 33 0 8 -6 21 -9 30 -5 17 7 22 30 7
36 -6 2 -4 33 5 78 8 41 14 76 14 78 0 10 -39 -1 -44 -14z m-22 -92 c9 -15 -6
-52 -20 -52 -14 0 -20 41 -7 53 9 9 21 9 27 -1z"/>
<path d="M788 450 l-15 -90 24 0 c16 0 23 6 23 19 0 38 11 51 46 51 24 0 34 5
34 15 0 10 -10 15 -30 15 -23 0 -30 5 -30 19 0 16 8 20 42 23 31 2 44 8 46 21
3 15 -5 17 -61 17 l-64 0 -15 -90z"/>
<path d="M946 472 c-3 -5 -8 -31 -11 -59 -8 -53 5 -70 40 -57 16 7 20 30 6 36
-6 2 -6 21 -2 46 7 37 6 42 -10 42 -10 0 -20 -4 -23 -8z"/>
<path d="M1026 465 c-2 -7 -8 -33 -11 -59 -7 -41 -5 -46 12 -46 15 0 22 10 29
42 13 59 34 62 34 5 0 -51 22 -69 49 -42 14 13 14 17 2 24 -9 6 -12 19 -8 38
3 16 3 34 -1 40 -10 15 -100 13 -106 -2z"/>
<path d="M1348 463 c-18 -21 -30 -74 -20 -90 19 -30 99 -19 110 16 4 11 -3 12
-32 7 -29 -6 -36 -4 -36 9 0 11 11 15 40 15 36 0 40 3 40 24 0 38 -73 52 -102
19z m62 -23 c0 -5 -9 -10 -21 -10 -11 0 -17 5 -14 10 3 6 13 10 21 10 8 0 14
-4 14 -10z"/>
<path d="M1486 471 c-2 -3 -7 -30 -11 -58 -6 -49 -5 -53 14 -53 14 0 21 6 21
19 0 11 5 32 11 48 10 27 11 27 24 9 19 -25 47 -14 43 16 -3 20 -9 23 -51 24
-26 1 -49 -1 -51 -5z"/>
</g>
</svg>
