<svg xmlns="http://www.w3.org/2000/svg" xmlns:xlink="http://www.w3.org/1999/xlink" width="128" height="152"><defs><path id="a" d="M96.9 35.4L56.3 12.2a5 5 0 0 0-5 0L12 35.5a5 5 0 0 0-2.5 4.3v47a5 5 0 0 0 2.5 4.3l39.2 22.8a5 5 0 0 0 5 0L96.7 91a5 5 0 0 0 2.6-4.3v-47a5 5 0 0 0-2.5-4.3z"/><path id="c" d="M1.3 24.6l31.2 15.9 11 6.2-.1-46-.8-.5z"/><path id="d" d="M0 12.6l56.1-2.7-4.3-2.4L0 0z"/><path id="e" d="M.2 59.7l37 21.1L46.6.2z"/><path id="f" d="M56 43.5L15.3 23.8 0 32.8v5.6l51 6.4 4.1.6-55.1 3v49l12.6 7.1 45.3-56.2-8.8 77 7 4 55.7-32.6-.2-29.2-48.5-22 48.4 3.3V29L60.2 43.5l28.7-24.1L55.3.2z"/><path id="g" d="M42.3 19l-5.8-2a10 10 0 0 0-4.6-.2h-.2l-1 .2-1 .3-2 .8-1.1.6-.6.4-1.3.8-.7.6c-1 .8-1.8 1.8-2.4 2.8a21.8 21.8 0 0 0-1 4.3l-2-5.2 2-.9-3.9-2.4 2.3-1-6.7-1c-.2 0-2-.2-3.6.2h-.1c-.3 0-.7.1-1 .3l-1 .3h-.2l-2 1-1 .8c-.3 0-.5.2-.8.4-1.1.5-2 1.3-2.6 2.2v12l.1.2V38H0v22.2l30.6 17.5v-.2l8.7-25.6 1.5-3.6L50.5 36l3-2.8 3.6 5.6-2.8-1.6 9.1 14.6L68 83.1v2l43.8-25.7-.1-11-1.9-.8-2-.7.7-4.6 2-3.4c.5-1.2.8-5 .9-6.7h.2v-4l-.3-1-.2-.3c-.2-.3-.3-.7-.6-1a7.1 7.1 0 0 0-4.5-3l-2.8-1.8-1 .7c-1 0-3.2.5-4 1-.7 0-1.4.1-2 .3-1.3.3-2.3.7-3 1.4l-1.8 1.4c.2-1 .2-1.6.1-2.2a5.9 5.9 0 0 0-1.8-3.3 8.2 8.2 0 0 0-6-2.7c-3.7-.1-5.7.4-7.8 2.1-.8.6-1.7 1.7-2.6 6l-9-12.7-6.9-11.6-15 17.5zm-8.8 1h.6-.6zM20 34.4a67 67 0 0 0-.4-2c.6-1.4.2-2.8-.3-3.8l1.1.4c-.2 2.5-.2 5.2-.2 6l-.1.1-.1-.7zm69 1.2l.5-1.8 1.8-.8-2.4 4v-1.4zm-.2 4.2l.1-2.4 1.5 1-.2 2.3-1.4-.9z"/><path id="h" d="M39.7 25.2L35 29.6l.3-.7-5.3 4 .6-4c0-.5.9-4.4 1.1-7.3l2.4.9-.8-2c-.2-.3-.4-.7-.8-1h1.4l-2-1.6 2.8-.3-4-1.4a8.6 8.6 0 0 0-4-.1l-.7.1-1 .3-1.7.7-.4.2-.4.2-.2.2c-.2 0-.4.2-.6.4a9 9 0 0 0-1.2.7l-.6.4a8 8 0 0 0-2 2.4c-1.2 2.3-1 10.1-1 11v.3l1.6 2.5-.3 4L1.5 51l-1 9.5 23.2 14.2 8.7-25.9L34 45l7.6-9.6-.7.4 2-2.2 6-5.8 7-23.3L53.5.1 39.7 25z"/><path id="i" d="M39.5 24l-7.6 7 .5-1.4-4.7 3.5 1-6.2s1.1-5.7 1-8.4l.4.1 1.3.5c-.2-.4-.6-.8-1-1-.2-.3-.5-.4-.8-.5l-.1-.4-.7-.5h1.4a4 4 0 0 0-1.7-.7 6 6 0 0 0-3.1.1H25a22.9 22.9 0 0 1 4.3-.8 9 9 0 0 0-3.4-.1l-.9.1-.8.2-1.6.7-.4.2-.4.2-.7.5a8 8 0 0 0-3.5 3.2c-1.1 2.2-1 10.6-1 10.6l1.7 2.6-.3 4.7L1.4 49.6l-.7 9 16 9.6.4-2.8 1.6-2.7-2.8 2.8-1-1.2 7.3-9.6-11.5 7 12.4-11-5 1.2 14-9 .1-.3 4.8-6-1.2.6-1.3.4a2.5 2.5 0 0 1-1.3-.2 3.5 3.5 0 0 1-1.1-.7c-.4-.3-.6-.7-.7-1l-.2-1.3V33a6.1 6.1 0 0 0 .4 2.4l.7 1 .2.1a4.4 4.4 0 0 0 .8.4l.6.1h.5c.4 0 .7-.2 1-.4l1.2-.7.6-.3 4-4.6s4.8-5 4.5-5.1c-1-.3-1.7-1.2-2-2.4l-.1-1.2c-.2-1.3 0-2.5.7-3.5l5.5-8.4a6 6 0 0 1 2-.6l2.1-7.2L52.5.2l-13 23.7zm-15.7-7.2l1-.3c.7 0 1.4 0 2 .2h-1l-1 .1-.9.2-1 .3 1-.5zM23 18l-.7-.2h-1.7l.8-.4h1l.8.3c.3.1.5.3.7.6L23 18zm.4 2.8c.6 0 1.2-.2 1.7-.5.5-.2 1-.5 1.2-1 1 0 1.8 0 1.8.3 0 .9-.5 2-1.6 2.4-.4.1-4.2.8-5.1.7-1 0-.8-.4-.8-.4s-.3-.6-.2-1.1a11.3 11.3 0 0 0 1.9.3l-.4-.8a4.6 4.6 0 0 0 1.5.1zm0 3.3l-.8.6-1.4 1a95 95 0 0 0 2.5-1l.4-.2.2-.1v-.1h.1c.1.4-.4 1.3-.4 1.3l-2 2c-.5 0-.3-1.2-.3-1.2l-.8-.4-1-.2s.4-1.7 3.5-1.7z"/><path id="j" d="M3.3 29.7v.2l4 6 2.2 4.8-1.8-1 5.8 9.2 4.7 32.7L42 67.5l1.7-14.6-4.4-11.6-4.2-3.1.3-4.7 1.5-5.2c.1-.5.8-.5.8-1.7 0-.6-.2-.9 0-1.4.3-1.4.4-2.6.4-3.3-.4-2.9-2.7-4.8-6.1-4.9-3.2-.1-4.8.3-6.6 1.7-.4.3-1.4 1.1-2.5 7.8-.3 1.8 0 5 0 5.2l.5 1.9-2 .6-.2.5-5-5 .2.8L14 27 9.1.9.8.5l2.5 29.2z"/><path id="k" d="M.1 9.4C.5 8.1 1.5 7.7 1.7 8c.3.4 4 10 4.1 10.2 0 .5-.1 4-.4 5.8-.3 1.8-.5 2.2-1.3 2.8-.4.4-.8.4-1-.2-.3-.6-1.2-4-2-7.5l1.1 9.2L6.4 34l3.3 6c1.8 1.3 5.8-1 5.8-1s-2.7 3.2-5.4 2.3l-.9-.4 4 5.8L24.6 53l-8.3-2.3L27.7 65l-9.3-6.3 5.3 7.4-3-.8 5.7 6.2-5.7-1.2 4.5 4.3L42 64.3l.8-14-4.7-11-4.7-3 .2-5.4 1.2-4 .8-1c.3-.4.4-.7.4-1.1l.1-1.2c0-.4 0-.7-.2-1 .2-1.3.3-2.4.2-3-.1-1-.6-1.8-1.3-2.4l-.3-.2-.9-.3a8.1 8.1 0 0 0-1.9-.3l.8-.2h-1.4l-1.3.1-1.2.3a3.7 3.7 0 0 1 2-.9h-1.3l-.4.2a8.1 8.1 0 0 0-2.4 1l-1.4 1 .5-.7A5.7 5.7 0 0 1 27 16c-1 .3-1.8.7-2.6 1.4-1 .8-1.6 4.5-2 7.3-.2 1.7.1 4.9.1 4.9l.9 2.6-2.5.8-.4 1.6-3.5-3.1a6 6 0 0 1 .4 2 4.8 4.8 0 0 1-.6 2.3 5.3 5.3 0 0 0 0-2.3c0-.4-.1-.7-.3-1L10 25.7 5.5.3H.1v9.1zm28.8 9l.4-.3.8.1c-.7.5-1 1.4-1 1.4s.7-.4 1.4-.5c.5-.1 1-.2 1.3-.1-.2.6-1.1 1.7-1.5 2.2h.2l1.4.7a96.2 96.2 0 0 1-2.2-.4c-1.2.1-3.9.3-5.2.1-1-.1-.6-1.6-.2-2.7 0-.2.3-.3.7-.4-.3.8-.6 1.6-.6 2.5.3-.9.5-1.6 1.2-2.2l.8-.6 1-.1c-.5.6-.8 1.4-1 2 .5-.6 1.4-1.6 2-2l-.2 1.1.7-.7zm-5 12c-.6-.6-.3-1.5-.3-1.5l-.2-1.9-.4-2.2c0-.8 1-1.4 1-1.4l.5.2-.7.5a106.4 106.4 0 0 0 1.8-.6h.2l-.4 2.6c0 .2-.2.3-.4.3h-.3l.7.9v.3l-1 .5.1.1 2 .4v.3l-.8.3a1 1 0 0 1-.5.1H25l.8.6c.3.1.5.4.6.6v.4s-1.9-.1-2.4-.6zm5-6.7l-.2-.1c1.1.1 1.7.5 2 .8.1 0 .1.3 0 .4l-2 .7c-.4.2-.8 0-1-.3-.1-.5-.3-1.1-.2-1.5h.2l.3.2.8.1 1.4.3-1.3-.6zm5.9 2.3l.4-.7a2.9 2.9 0 0 0 .2-1.1v-.4l.1.4v.4l-.1.8-.4.7-.6.5.4-.6zm-1.4 1v-.3l.2-.3h.3l-.1.2-.1.1v.3l-.2.2v-.3zm-5.2 26a56.5 56.5 0 0 1-9.4-4.8 33.5 33.5 0 0 1 6.6 2.5 57.4 57.4 0 0 1 6.1 3.5L28.2 53z"/><path id="l" d="M.1 3.8l9.7 18.7L11 25l2.5 5.9 16.3 14 3.2 5.3.4 6 1.3 6.5 21-12.3v-9c-.8-.5-1.7-.9-2.5-1.2l-3.5-1.1 1-6.4c.1 0 1-1.5 2.1-3.6 1-1.9.8-5.5.7-7.3l.8.7L54 20l-.3-1.1-.2-.3-.4-.8a5.4 5.4 0 0 0-3.7-2.2l-.4-.3-1.8-1.5.3.9a5.2 5.2 0 0 0-4.8.8c-.7 0-1.4 0-2.1.2-1 .2-1.8.6-2.4 1l-1.6 1.4 1 .2c-.5.5-.8 1-1 1.5l-.6 2 2.2-1c-.3 1-.4 1.9-.4 2.3l-2.7 4.6 1.2.8c-.2 1.2-.5 3.8-.4 6.2v.4l-2.6-.7L21 25.2 17.7 22l-2-4.6L3.2 0l-3 3.8z"/><path id="m" d="M.7 3l8.2 18 2.5 2.7 2.4 5.8 15.9 14 3.4 5.7v.6L34 51l5.5 7.6 15-8.9v-7.8c-.8-.6-1.7-1-2.7-1.4l-.6-.2-5.6.2 4-.8-2-.6 1.3-7.5h.1l2-3.6c1.1-2.1.5-7.6.5-7.6s-.1-1-.8-2.1l.7.6.6.6-.2-.9-.5-.8a4.4 4.4 0 0 0-3.2-2l-1-.6c-.8-.3-1.6-.5-2.4-.5a4.2 4.2 0 0 0-2.5 1.1c-.8 0-1.5 0-2.2.2-.7.1-1.4.4-2 .9l1.8.2a4.4 4.4 0 0 0-2.2 1 3 3 0 0 0-.8 1.3l1.2-.6 1.1-.4.5-.3-.4 1c-1 .7-.3 2.8-1.2 3.5-.5.4.7 1.4.7 1.4s-.9-.3-1.2-.8v.2l-1.7 3c-.1.2 0 .4.1.6l.3.1c.2.2.3.4.2.6v.3l-.3.5v.5l-.1.2v.2l.2.2v.4l-.4.3v.8l.2 1V34l1.8.6.9-.1.4-.1h.3l.2-.1c.3 0 .5-.2.7-.4l.7-.8 2.9-3-2.5 3.3-.7.9c-.2.3-.5.6-1 .7l-.2.1h-.2l-.2.1v.6l.9 1 .6.7a5.5 5.5 0 0 0 2.3 1.4l.9.3.9.2-1-.1c-.3 0-.6 0-.9-.2a6.2 6.2 0 0 1-2.6-1.2l-.7-.6-1.4-1.2-4-1-2-.2h-5l1.4-1.5-1-1H27a5.1 5.1 0 0 0-2.5.1 4.8 4.8 0 0 0-2 1.5 5 5 0 0 1 1.9-1.8 4.6 4.6 0 0 1 2-.6l-6.2-6-.6-.5-3.2-3.1-3.8-.2 3.4-.5-1.8-4.3L2.5 0 .7 3zm38.8 15.1zm2.7 6.5l.3-.3.2-.2h.2a1.6 1.6 0 0 1 1.3 0l.4.2h-.8a2.4 2.4 0 0 0-1.3.6l-.8.4.5-.7zm-5 1.2c.4-1 1.5-1.3 1.5-1.3s-1.1.8-1.3 2.9c0 .6-.1.8-.2.8-.2 0-.4-1.7 0-2.4zm12.3 21.9a52.6 52.6 0 0 1-8.5-6 33.1 33.1 0 0 1 6 3.3 56 56 0 0 1 5.6 4.3l-3.1-1.6zM37 60l2-1.2-1.8-2a6.2 6.2 0 0 0-2.4-1.4L37 60z"/><path id="n" d="M.6.6l.2.1.3.2.2.2h.3l.5.4 2.2.8H5l.3.1h.3l.3.1H6l.6.1a6.7 6.7 0 0 0 1.2 0H9l-1.2-.3h-.5L7 2.1 6.7 2h-.6l-.5-.2-1.1-.2L2.3.9 1.8.8 1.5.7 1.2.6.2.2l.4.4z"/><path id="o" d="M41.8 15v.1L39 19.4 35.2 22l-14 7.4-2.6.1a27.5 27.5 0 0 0-.7-4.7l.1-.2c.6-1 .1-2.2-.5-3.3l-.7-1.2-.4-1.6 1.6.5-1.5-3.2-.4-.7 1.4-.3-2.8-1.7 1.7-1.2-4.3-.4a11 11 0 0 0-3 .1H9L8 12l-1 .3-1.7 1-.4.2-.4.3-.3.2-.9.4a5.7 5.7 0 0 0-3.1 5.2c0 1 .2 5.2 1.6 7.3l-.1 5-1.8.7v20.3l14.6 8.3 5.5-9.3 3.5-5.9 3.4-6.4L42.4 30l3.5-5.6 3.1-2.2 9-16.1-5-4.8L41.9 15z"/><path id="p" d="M39.7 12.7L37 17.2 33 20l-13.5 7.5-.7.1-1.7 3.5.7-3.3h-.3l-1.3 2 .4-1.8-2 .4-1.2.3-2.8.6-1 .3c-.4 0-.7.2-1 .3l-1 .2-.5.2-.5.1-.5.1-.5.2-1 .3-2 .5a17.9 17.9 0 0 1 1.8-1.2l1-.5.9-.4 2-.8.4-.2.5-.1 1-.3 1.2-.3h-.1l-.4-.2a2.3 2.3 0 0 1-1-1v-.2l-.1-.2-.1-.4-.5-1.6.8 1.5.2.3v.2l.2.1a1.5 1.5 0 0 0 .8.5l.4.1.7.2 1.5.4.6-.1h.4c-.1-1.6-.4-5-1-6.6-.6-2-2.3-2.4-2.3-2.4s1.6 0 2.4.7c.4.3.5 1 .7 2l.3-.5c.4-.6-1.3-3.1-1.3-3.1V17c-.5.5-2.8.7-2.8.7s2.4-.7 1.6-1.2c-.8-.5-.4-3-1.9-4l.1.1 2 1c0-.4-.3-.7-.5-1l.3.2 1 .4a3 3 0 0 0-1-1.1 4 4 0 0 0-1.2-.6H11l-.6-.2 1.6-.4c-.6-.4-1.3-.6-2-.6h-.8l1.8-.6s-2-.1-3 .1l-.8.2-.7.3-1.5.8-.3.2-.4.3-.4.3-.9.4c-2.3 1.3-2 3.8-2 3.8s.1 5 1.3 6.7l.2.2-.1 6.6-2.3.9v2.8l.4-.1a54.8 54.8 0 0 1 9.8-1.5 29.7 29.7 0 0 1-6.4 1.7l-3.3.5H0v16.5l7.4 4.4 9-7.7 2-2 1.8-3.2 4.1-5.6 13.8-10.9 2.9-4.7-4.1 2 6-4 1.4-1L51.8 3 49.4.1l-9.7 12.6zM7.5 21.8l-.5-.6a2 2 0 0 1-.2-.9V20l.3-.4v.4a2.3 2.3 0 0 0 .2 1l.4.7.5.7-.7-.5zm1.5.8a2 2 0 0 0-.1-.4h-.1V22H9l.2.3v.3l-.1.3v-.3zM8 55.1l2.6 1.7 3.4-4.3-6 2.6z"/><path id="q" d="M48.7 37.2c0 .3-.1.6-.3.8-.7.9-1.5.8-2.4-.2l-6-8.3 4 10.2c.1 1-.6 1.8-1.4 1.6L4.1 29.5 2.3 29l-2 1.2L40 43.4c1.2.4 1.1 1.6 0 2L17.4 49l23.3-2.2c1.2.2.9 1.3 0 2.2L19.6 75.7l23.2-25c1.3-1.3 3 0 2.6 1.6l-9.8 67 12.6-66.7c.3-2 1.4-1.6 2.2 0L67.6 87 52.3 49.4c-.1-1 .8-1.6 1.6-1.4l10.7 3.4-8.2-4.6c-1-.8-.6-2.6.5-2.7l45.2-.7v-2.1l-43 1.7c-.3 0-1 0-1.2-.5 0 0-1.2-.6 0-1.2l18.9-6.5-20.3 5.7c-1.2.4-2.1-1.5-1.3-2.6l10.4-22-13.3 22c-.8.8-2-.1-2-1.4L48.8 0v37.2z"/></defs><g transform="translate(10)" fill="none" fill-rule="evenodd" opacity=".5"><path fill="#DCE9F4" d="M4 99.5a8.3 8.3 0 0 1-4-7.2V36.5a8 8 0 0 1 3.7-6.8l48-28.5a4 4 0 0 1 4 0L105 29a8 8 0 0 1 3.8 7v55.7c0 2.9-1.5 5.6-3.9 7L55.7 127a4 4 0 0 1-4 0L4 99.5z"/><path fill="#BCD0DD" d="M102 93.4l-46.2 27a4 4 0 0 1-4 0l-45-26.3a4 4 0 0 1-2-3.4V38.6C4.8 36.3 6 34 8 33L51.8 6.7a4 4 0 0 1 4 0l45 25.5c2 1.2 3.3 3.4 3.3 5.7v52a4 4 0 0 1-2 3.5z"/><mask id="b" fill="#fff"><use xlink:href="#a"/></mask><use fill="#3B82AE" xlink:href="#a"/><g mask="url(#b)"><g fill="#B3C5D1"><path d="M56.4 45l2.4-.6 53-7.9-.1-5.2-22.4-12.8z"/><path d="M61.7 43.8l42.9 3v23z"/></g><use fill="#B3C5D1" xlink:href="#c" transform="translate(12.9 -.8)"/><use fill="#B3C5D1" xlink:href="#d" transform="translate(.3 35.7)"/><use fill="#B3C5D1" xlink:href="#e" transform="translate(12.2 43.7)"/><use fill="#DCE9F4" xlink:href="#f" transform="translate(.3 -.8)"/><use fill="#FFF" xlink:href="#g" transform="translate(.3 36.4)"/><use fill="#FFF" xlink:href="#h" transform="translate(5.6 38.8)"/><use fill="#618193" xlink:href="#i" transform="translate(5.6 40.7)"/><use fill="#FFF" xlink:href="#j" transform="translate(51.8 38.8)"/><use fill="#618193" xlink:href="#k" transform="translate(53.8 40.7)"/><use fill="#FFF" xlink:href="#l" transform="translate(56.3 45.4)"/><use fill="#90A6B2" xlink:href="#m" transform="translate(56.8 46.1)"/><use fill="#FFF" xlink:href="#n" transform="translate(93.3 84.4)"/><use fill="#FFF" xlink:href="#o" transform="translate(.3 43.7)"/><use fill="#90A6B2" xlink:href="#p" transform="translate(3.5 46.1)"/><use fill="#FFF" xlink:href="#q" transform="translate(7.5 -1.3)"/></g></g></svg>